<?xml version="1.0" encoding="UTF-8" standalone="no"?>
<!DOCTYPE svg PUBLIC "-//W3C//DTD SVG 1.1//EN"
 "http://www.w3.org/Graphics/SVG/1.1/DTD/svg11.dtd">
<!-- Generated by graphviz version 2.38.0 (20140413.2041)
 -->
<!-- Title: models_diagram Pages: 1 -->
<svg width="1008pt" height="303pt"
 viewBox="0.00 0.00 1008.00 303.00" xmlns="http://www.w3.org/2000/svg" xmlns:xlink="http://www.w3.org/1999/xlink">
<g id="graph0" class="graph" transform="scale(1 1) rotate(0) translate(4 299)">
<title>models_diagram</title>
<polygon fill="none" stroke="none" points="-4,4 -4,-299 1004,-299 1004,4 -4,4"/>
<!-- _diagram_info -->
<g id="node1" class="node"><title>_diagram_info</title>
<text text-anchor="start" x="8" y="-251.1" font-family="Times,serif" font-size="13.00">Models diagram</text>
<text text-anchor="start" x="8" y="-237.1" font-family="Times,serif" font-size="13.00">Date: Jul 05 2016 &#45; 21:56</text>
<text text-anchor="start" x="8" y="-223.1" font-family="Times,serif" font-size="13.00">Migration version: 20160706024943</text>
<text text-anchor="start" x="8" y="-209.1" font-family="Times,serif" font-size="13.00">Generated by RailRoady 1.5.1</text>
<text text-anchor="start" x="8" y="-195.1" font-family="Times,serif" font-size="13.00">http://railroady.prestonlee.com</text>
</g>
<!-- Item -->
<g id="node2" class="node"><title>Item</title>
<path fill="none" stroke="black" d="M244,-173.5C244,-173.5 464,-173.5 464,-173.5 470,-173.5 476,-179.5 476,-185.5 476,-185.5 476,-267.5 476,-267.5 476,-273.5 470,-279.5 464,-279.5 464,-279.5 244,-279.5 244,-279.5 238,-279.5 232,-273.5 232,-267.5 232,-267.5 232,-185.5 232,-185.5 232,-179.5 238,-173.5 244,-173.5"/>
<text text-anchor="middle" x="354" y="-264.3" font-family="Times,serif" font-size="14.00">Item</text>
<polyline fill="none" stroke="black" points="232,-256.5 476,-256.5 "/>
<text text-anchor="start" x="240" y="-241.3" font-family="Times,serif" font-size="14.00">id :integer</text>
<text text-anchor="start" x="240" y="-226.3" font-family="Times,serif" font-size="14.00">item :character varying</text>
<text text-anchor="start" x="240" y="-211.3" font-family="Times,serif" font-size="14.00">serie :character varying</text>
<text text-anchor="start" x="240" y="-196.3" font-family="Times,serif" font-size="14.00">created_at :timestamp without time zone</text>
<text text-anchor="start" x="240" y="-181.3" font-family="Times,serif" font-size="14.00">updated_at :timestamp without time zone</text>
</g>
<!-- Inventario -->
<g id="node3" class="node"><title>Inventario</title>
<path fill="none" stroke="black" d="M506,-158.5C506,-158.5 726,-158.5 726,-158.5 732,-158.5 738,-164.5 738,-170.5 738,-170.5 738,-282.5 738,-282.5 738,-288.5 732,-294.5 726,-294.5 726,-294.5 506,-294.5 506,-294.5 500,-294.5 494,-288.5 494,-282.5 494,-282.5 494,-170.5 494,-170.5 494,-164.5 500,-158.5 506,-158.5"/>
<text text-anchor="middle" x="616" y="-279.3" font-family="Times,serif" font-size="14.00">Inventario</text>
<polyline fill="none" stroke="black" points="494,-271.5 738,-271.5 "/>
<text text-anchor="start" x="502" y="-256.3" font-family="Times,serif" font-size="14.00">id :integer</text>
<text text-anchor="start" x="502" y="-241.3" font-family="Times,serif" font-size="14.00">item :character varying</text>
<text text-anchor="start" x="502" y="-226.3" font-family="Times,serif" font-size="14.00">serie :character varying</text>
<text text-anchor="start" x="502" y="-211.3" font-family="Times,serif" font-size="14.00">descripcion :character varying</text>
<text text-anchor="start" x="502" y="-196.3" font-family="Times,serif" font-size="14.00">tamanio :integer</text>
<text text-anchor="start" x="502" y="-181.3" font-family="Times,serif" font-size="14.00">created_at :timestamp without time zone</text>
<text text-anchor="start" x="502" y="-166.3" font-family="Times,serif" font-size="14.00">updated_at :timestamp without time zone</text>
</g>
<!-- Operation -->
<g id="node4" class="node"><title>Operation</title>
<path fill="none" stroke="black" d="M637,-0.5C637,-0.5 857,-0.5 857,-0.5 863,-0.5 869,-6.5 869,-12.5 869,-12.5 869,-109.5 869,-109.5 869,-115.5 863,-121.5 857,-121.5 857,-121.5 637,-121.5 637,-121.5 631,-121.5 625,-115.5 625,-109.5 625,-109.5 625,-12.5 625,-12.5 625,-6.5 631,-0.5 637,-0.5"/>
<text text-anchor="middle" x="747" y="-106.3" font-family="Times,serif" font-size="14.00">Operation</text>
<polyline fill="none" stroke="black" points="625,-98.5 869,-98.5 "/>
<text text-anchor="start" x="633" y="-83.3" font-family="Times,serif" font-size="14.00">id :integer</text>
<text text-anchor="start" x="633" y="-68.3" font-family="Times,serif" font-size="14.00">descripcion :character varying</text>
<text text-anchor="start" x="633" y="-53.3" font-family="Times,serif" font-size="14.00">created_at :timestamp without time zone</text>
<text text-anchor="start" x="633" y="-38.3" font-family="Times,serif" font-size="14.00">updated_at :timestamp without time zone</text>
<text text-anchor="start" x="633" y="-23.3" font-family="Times,serif" font-size="14.00">employee_id :integer</text>
<text text-anchor="start" x="633" y="-8.3" font-family="Times,serif" font-size="14.00">inventario_id :integer</text>
</g>
<!-- Inventario&#45;&gt;Operation -->
<g id="edge1" class="edge"><title>Inventario&#45;&gt;Operation</title>
<path fill="none" stroke="#bc9b77" d="M675.044,-151.808C681.35,-143.937 687.737,-135.965 693.968,-128.189"/>
<ellipse fill="none" stroke="#bc9b77" cx="672.54" cy="-154.933" rx="4.00002" ry="4.00002"/>
<ellipse fill="#bc9b77" stroke="#bc9b77" cx="696.659" cy="-124.83" rx="4.00002" ry="4.00002"/>
</g>
<!-- Employee -->
<g id="node5" class="node"><title>Employee</title>
<path fill="none" stroke="black" d="M768,-173.5C768,-173.5 988,-173.5 988,-173.5 994,-173.5 1000,-179.5 1000,-185.5 1000,-185.5 1000,-267.5 1000,-267.5 1000,-273.5 994,-279.5 988,-279.5 988,-279.5 768,-279.5 768,-279.5 762,-279.5 756,-273.5 756,-267.5 756,-267.5 756,-185.5 756,-185.5 756,-179.5 762,-173.5 768,-173.5"/>
<text text-anchor="middle" x="878" y="-264.3" font-family="Times,serif" font-size="14.00">Employee</text>
<polyline fill="none" stroke="black" points="756,-256.5 1000,-256.5 "/>
<text text-anchor="start" x="764" y="-241.3" font-family="Times,serif" font-size="14.00">id :integer</text>
<text text-anchor="start" x="764" y="-226.3" font-family="Times,serif" font-size="14.00">nombre :character varying</text>
<text text-anchor="start" x="764" y="-211.3" font-family="Times,serif" font-size="14.00">email :character varying</text>
<text text-anchor="start" x="764" y="-196.3" font-family="Times,serif" font-size="14.00">created_at :timestamp without time zone</text>
<text text-anchor="start" x="764" y="-181.3" font-family="Times,serif" font-size="14.00">updated_at :timestamp without time zone</text>
</g>
<!-- Employee&#45;&gt;Operation -->
<g id="edge2" class="edge"><title>Employee&#45;&gt;Operation</title>
<path fill="none" stroke="#db4b57" d="M831.184,-167.07C821.488,-154.968 811.197,-142.123 801.26,-129.722"/>
<ellipse fill="none" stroke="#db4b57" cx="833.689" cy="-170.196" rx="4.00002" ry="4.00002"/>
<polygon fill="#db4b57" stroke="#db4b57" points="801.045,-129.453 798.304,-118.835 797.918,-125.551 794.792,-121.649 794.792,-121.649 794.792,-121.649 797.918,-125.551 791.28,-124.463 801.045,-129.453 801.045,-129.453"/>
</g>
</g>
</svg>
