<?xml version="1.0" encoding="UTF-8" standalone="no"?>
<!DOCTYPE svg PUBLIC "-//W3C//DTD SVG 1.1//EN"
 "http://www.w3.org/Graphics/SVG/1.1/DTD/svg11.dtd">
<!-- Generated by graphviz version 2.38.0 (20140413.2041)
 -->
<!-- Title: models_diagram Pages: 1 -->
<svg width="518pt" height="158pt"
 viewBox="0.00 0.00 517.80 158.00" xmlns="http://www.w3.org/2000/svg" xmlns:xlink="http://www.w3.org/1999/xlink">
<g id="graph0" class="graph" transform="scale(1 1) rotate(0) translate(4 154)">
<title>models_diagram</title>
<polygon fill="none" stroke="none" points="-4,4 -4,-154 513.796,-154 513.796,4 -4,4"/>
<!-- _diagram_info -->
<g id="node1" class="node"><title>_diagram_info</title>
<text text-anchor="start" x="8" y="-135.6" font-family="Times,serif" font-size="13.00">Models diagram</text>
<text text-anchor="start" x="8" y="-121.6" font-family="Times,serif" font-size="13.00">Date: Jul 05 2016 &#45; 21:56</text>
<text text-anchor="start" x="8" y="-107.6" font-family="Times,serif" font-size="13.00">Migration version: 20160706024943</text>
<text text-anchor="start" x="8" y="-93.6" font-family="Times,serif" font-size="13.00">Generated by RailRoady 1.5.1</text>
<text text-anchor="start" x="8" y="-79.6" font-family="Times,serif" font-size="13.00">http://railroady.prestonlee.com</text>
</g>
<!-- Item -->
<g id="node2" class="node"><title>Item</title>
<ellipse fill="none" stroke="black" cx="259" cy="-111" rx="27.0966" ry="18"/>
<text text-anchor="middle" x="259" y="-107.3" font-family="Times,serif" font-size="14.00">Item</text>
</g>
<!-- Inventario -->
<g id="node3" class="node"><title>Inventario</title>
<ellipse fill="none" stroke="black" cx="351" cy="-111" rx="46.5926" ry="18"/>
<text text-anchor="middle" x="351" y="-107.3" font-family="Times,serif" font-size="14.00">Inventario</text>
</g>
<!-- Operation -->
<g id="node4" class="node"><title>Operation</title>
<ellipse fill="none" stroke="black" cx="407" cy="-18" rx="46.2923" ry="18"/>
<text text-anchor="middle" x="407" y="-14.3" font-family="Times,serif" font-size="14.00">Operation</text>
</g>
<!-- Inventario&#45;&gt;Operation -->
<g id="edge1" class="edge"><title>Inventario&#45;&gt;Operation</title>
<path fill="none" stroke="#e1ab89" d="M365.549,-86.3571C373.824,-72.9106 384.155,-56.1238 392.432,-42.6724"/>
<ellipse fill="none" stroke="#e1ab89" cx="363.368" cy="-89.9026" rx="4.00002" ry="4.00002"/>
<ellipse fill="#e1ab89" stroke="#e1ab89" cx="394.697" cy="-38.9916" rx="4.00002" ry="4.00002"/>
</g>
<!-- Employee -->
<g id="node5" class="node"><title>Employee</title>
<ellipse fill="none" stroke="black" cx="463" cy="-111" rx="46.5926" ry="18"/>
<text text-anchor="middle" x="463" y="-107.3" font-family="Times,serif" font-size="14.00">Employee</text>
</g>
<!-- Employee&#45;&gt;Operation -->
<g id="edge2" class="edge"><title>Employee&#45;&gt;Operation</title>
<path fill="none" stroke="#491531" d="M448.451,-86.3571C440.482,-73.4086 430.608,-57.3626 422.496,-44.1804"/>
<ellipse fill="none" stroke="#491531" cx="450.632" cy="-89.9026" rx="4.00002" ry="4.00002"/>
<polygon fill="#491531" stroke="#491531" points="422.447,-44.1016 421.039,-33.2265 419.827,-39.8433 417.206,-35.585 417.206,-35.585 417.206,-35.585 419.827,-39.8433 413.374,-37.9434 422.447,-44.1016 422.447,-44.1016"/>
</g>
</g>
</svg>
